Patient4_TMGait_0pt8_01_left_44_EMG.mot
version=1
nRows=37
nColumns=33
inDegrees=no
endheader
time	1LAddLong	2LGlutMax	3LGlutMed	4LIliopsoas	5LSemiMemb	6LBicFemLong	7LRecFem	8LVastMed	9LVastLat	10LGasMed	11LTibAnt	12lTibPost	13LPeroneusLong	14LSol	15LExtDigLong	16LFlexDigLong	17RAddLong	18RGlutMax	19RGlutMed	20RIliopsoas	21RSemiMemb	22RBicFemLong	23RRecFem	24RVastMed	25RVastLat	26RGasMed	27RTibAnt	28RTibPost	29RPeroneusLong	30RSol	31RExtDigLong	32RFlexDigLong
49.66	0.01709	0.17151	-0.012512	0	0.058136	-0.054779	-0.22949	0.001678	0.006409	0.038605	0.016632	-0.056305	-0.081024	-0.034027	-0.043488	0.00885	-0.055542	-0.007172	0.29648	-0.04364	0.49255	0.50323	-0.42068	-0.045013	0.24155	-0.010071	0.087433	-0.002747	0.29404	0.050354	-0.003357	-0.010986
49.661	0.009613	0.13382	0.061493	0.002136	0.036163	-0.017548	-0.21591	0.005035	0.004883	-0.41809	0.008392	0.075226	-0.059814	0.14893	-0.029449	0.26138	-0.014038	0.03067	0.21149	0.041351	0.31021	0.46356	-0.29739	0.063782	0.18829	-0.004425	0.082245	-0.003662	0.14358	-0.009918	0	-0.007629
49.662	0.012817	0.19913	0.000305	0.010071	0.002899	0.009003	-0.2095	0.005646	0.001984	-0.42831	0.009308	-0.10223	-0.020752	0.15091	0.000916	-0.042725	-0.035858	0.03952	0.17761	0.037537	0.12863	0.40085	-0.28214	0.08606	0.031281	-0.007782	0.11627	-0.002747	-0.50156	-0.021362	0.001068	-0.011292
49.663	0.013733	0.20187	-0.098877	0.02121	0.023346	0.082092	-0.18631	0.009766	-0.005341	-0.53436	0.011749	0.14893	-0.089874	0.044861	0.011597	-0.090179	-0.046997	0.054932	0.2269	-0.021667	0.031891	0.40543	-0.24445	0.16861	-0.038452	-0.007019	0.12436	-0.008087	-0.34866	-0.064087	-0.000458	-0.001678
49.664	0.000916	0.20554	-0.028534	0.015106	0.045624	0.093842	-0.19852	0.007324	-0.002289	-0.4071	0.016174	-0.054626	-0.1239	0.057983	0.027161	-0.06012	-0.05722	0.041809	0.24353	-0.044861	0.058746	0.43076	-0.16235	0.16068	-0.07309	-0.008545	0.10254	-0.003052	-0.10727	-0.040894	0.001221	-0.000916
49.665	0.005188	0.23224	0.083923	-0.005493	0.02182	0.077209	-0.21057	0.009918	0.003815	-0.2623	0.008545	-0.15366	-0.11902	-0.016937	0.046844	-0.05722	-0.062256	0.024567	0.17456	-0.015411	0.41016	0.37964	-0.24323	0.16281	-0.12268	-0.005951	0.068512	-0.00473	0.22003	-0.057678	0.002289	-0.003967
49.666	0.004272	0.21072	0.037231	-0.007324	-0.002594	0.067291	-0.22797	-0.000458	-0.013885	-0.11032	0.006409	-0.042572	-0.070496	-0.21927	0.062103	-0.046539	-0.057831	0.13138	0.31845	-0.027924	0.5069	0.25391	-0.4248	0.25101	-0.13794	-0.007935	0.059509	-0.009155	0.25879	-0.069427	0.00473	0.000153
49.667	0.011597	0.23117	0.25833	-0.014954	-0.01297	0.023651	-0.2269	-0.001678	-0.01709	0.23499	0.006256	-0.090942	0.13489	-0.31158	0.065155	-0.007629	-0.049896	0.19257	0.29541	0.043793	0.66284	0.18433	-0.35721	0.21286	-0.075378	-0.014343	0.066833	0.002747	0.16846	-0.05188	-0.000763	-0.002136
49.668	0.015869	0.19196	0.26627	-0.002136	0.005188	-0.028381	-0.23453	-0.001068	0.000305	0.45746	-0.000153	-0.077209	0.21805	-0.17212	0.064697	-0.006409	0.002136	0.20691	0.14755	0.079346	0.62393	0.083923	-0.43289	0.022125	0.022736	-0.009308	0.071106	-0.001373	-0.30014	-0.067902	-0.001068	0.00061
49.669	0.021362	0.20035	0.21805	-0.004883	0.055847	-0.069885	-0.2179	-0.018616	-0.012207	-0.13657	-0.000305	-0.052338	0.14816	-0.27359	0.050964	-0.030212	0.026093	0.2272	0.068054	0.038605	0.48706	0.16739	-0.48874	-0.17471	0.2385	-0.008545	0.090179	-0.001678	-0.25894	-0.086365	0.000916	-0.001068
49.67	0.015869	0.22995	0.22064	0.020447	0.030823	-0.041809	-0.21896	-0.041046	-0.028381	-0.87311	-0.00412	-0.069275	0.041656	-0.25269	0.055847	-0.068054	0.028839	0.25757	-0.1358	0.033264	0.15549	0.35126	-0.38391	-0.26108	0.24643	-0.013733	0.088348	-0.002441	0.068512	-0.065765	0.005341	-0.007324
49.671	0.01297	0.17502	0.27145	0.012665	0.015411	-0.061035	-0.20248	0.00946	-0.019073	-0.53543	0.003052	-0.073242	-0.048676	0.013885	0.056458	-0.054474	0.039825	0.23086	-0.054016	-0.005035	0.001831	0.46143	-0.29572	-0.1828	0.14587	-0.011597	0.06424	-0.007629	-0.094757	-0.031891	-0.000763	-0.007935
49.672	0.0177	0.21057	0.25559	0.004272	0.025635	-0.098114	-0.19257	0.003815	-0.024109	-0.37262	-0.00946	-0.070343	-0.083008	0.20432	0.045929	-0.022278	0.060272	0.13702	0.066681	-0.029907	0.009766	0.45731	-0.36392	-0.11841	0.15854	-0.016632	0.066071	-0.008698	-0.1239	-0.037842	0.000305	-0.007172
49.673	0.015259	0.23529	0.242	-0.004883	0.024567	-0.10346	-0.18356	-0.003052	-0.020294	-0.25345	-0.013275	-0.076904	0.056763	0.40726	0.028839	-0.00412	0.02121	0.044098	0.21896	-0.001984	-0.098267	0.32349	-0.51254	0.17792	0.22598	-0.01236	0.058594	-0.002289	0.15076	-0.019073	0.001373	-0.008698
49.674	0.011749	0.215	0.23453	0.012054	0.013428	-0.054016	-0.17425	-0.00061	-0.028992	-0.21088	0.001221	-0.046387	-0.005188	0.27161	-0.010986	-0.001984	0.038147	-0.14114	0.3688	0.02594	-0.18738	0.33997	-0.41687	0.23377	0.20645	-0.001221	0.010681	-0.004883	0.021362	-0.099335	-0.002899	-0.036774
49.675	0.010071	0.21652	0.19699	0.024567	0.003662	0.041504	-0.15976	0.002136	-0.037842	-0.056763	0.009003	-0.029144	-0.033569	-0.18204	0.003967	0.025177	0.055389	-0.2562	0.30807	0.054016	0.20447	0.27405	-0.22492	0.19638	0.16205	0	0.04715	-0.001984	-0.97717	-0.11932	-0.000763	-0.037537
49.676	0.001831	0.18372	0.1918	0.004425	0.021362	0.090179	-0.13779	0.006561	-0.043945	-0.041351	0.002441	-0.017853	-0.029755	-0.15823	0.017853	0.007935	-0.014648	-0.19547	0.35614	0.085907	0.51346	0.22079	-0.16815	0.18723	0.13626	-0.00412	0.11826	-0.000763	-0.90744	-0.078888	-0.00061	-0.040131
49.677	0.005035	0.19943	0.24124	-0.00061	-0.002441	0.042419	-0.13397	0.00412	-0.040894	-0.22446	0.000763	-0.024109	0.04303	0.013428	0.012207	-0.008698	-0.011292	-0.21729	0.21622	0.025482	0.45792	0.093842	-0.17548	0.32242	0.1149	-0.00946	0.032043	-0.002747	0.34073	-0.02655	-0.007935	-0.04425
49.678	0.014954	0.14862	0.27588	0.014954	-0.039215	0.061798	-0.14542	0.009918	-0.031433	-0.2684	0.002136	-0.02655	-0.005798	0.054169	0.008087	-0.003662	0.048981	-0.12405	0.17425	-0.023956	0.62271	-0.1239	-0.088043	0.56381	0.032806	-0.00824	0.028839	-0.003204	0.33997	0.00412	-0.000916	-0.035248
49.679	0.006104	0.17471	0.28809	0.008545	-0.052185	0.020599	-0.15198	-0.000305	-0.025024	-0.044403	0.001678	-0.023346	-0.041351	0.31418	0.007324	-0.009613	0.06073	-0.1358	0.15503	-0.041351	0.43991	-0.36301	-0.10376	0.54382	0.04425	-0.007477	-0.027313	-0.00412	0.38376	-0.003052	0	-0.028687
49.68	0.01236	0.17716	0.27008	0	-0.014954	-0.049133	-0.12787	-0.001984	-0.019226	0.072632	0.001984	-0.028534	-0.088043	0.22018	0.018158	-0.007477	0.024109	-0.11093	0.00473	-0.055084	0.12238	-0.3627	-0.25436	0.86899	0.54993	0.000458	0.050964	-0.002899	0.37109	-0.082397	-0.00061	-0.028076
49.681	0.004883	0.13809	0.24078	0.01358	0.05249	-0.046082	-0.093689	0.003052	-0.024719	0.024414	-0.002594	-0.033722	-0.048523	0.089569	0.026703	0.037079	-0.007782	-0.16922	-0.069885	-0.050659	0.23895	-0.24933	-0.5011	0.61722	1.4774	-0.000763	0.13336	-0.001068	0.00946	-0.063324	0.004425	-0.020599
49.682	0.003204	0.17914	0.26596	0.00885	0.035095	0.006866	-0.09903	0.000763	-0.013123	0.065155	0.00824	-0.034637	0.018158	-0.042725	0.032654	-0.018158	0.011139	-0.21744	-0.14969	-0.081787	0.41641	-0.22614	-0.52429	0.46417	1.523	-0.010071	0.19272	-0.002289	-0.22812	-0.020142	-0.002899	-0.011902
49.683	0.001984	0.17319	0.24048	0.000305	0.027771	0.032043	-0.098877	-0.001221	-0.008392	0.052185	-0.001068	-0.026398	0.2002	-0.5159	0.021515	-0.21515	0.0383	-0.24887	-0.15564	-0.10544	0.3154	-0.26642	-0.55359	0.19547	0.72601	-0.011139	0.053711	-0.00412	0.11673	0.03479	-0.001526	-0.016174
49.684	0.00061	0.15549	0.23132	-0.001678	0.035553	0.18616	-0.099182	-0.001373	-0.021973	0.22171	0.006714	-0.009308	0.2034	-0.75821	0.044708	0.080261	0.079346	-0.22995	-0.020447	-0.12375	0.038147	-0.24994	-0.55054	-0.10422	-0.098267	-0.007477	-0.48462	-0.000458	0.61356	-0.016937	0.001373	-0.014648
49.685	0.003357	0.1857	0.19653	0.00885	0.000916	0.27695	-0.12192	-0.007477	0.005188	0.51559	0.01297	-0.009918	0.048065	-0.47989	0.030212	0.1149	0.11459	-0.19852	0.13748	-0.032959	-0.036011	-0.34164	-0.47409	-0.55801	-0.68024	-0.001831	-0.46936	-0.00473	0.13214	-0.03006	-0.000305	0.002136
49.686	0.016937	0.18784	0.18173	0.007019	-0.034332	0.20523	-0.1268	-0.015106	0.027771	0.19699	0.016937	-0.004272	-0.1506	-0.37811	0.035858	0.029449	0.14374	-0.2684	0.20157	0.053101	-0.20645	-0.36392	-0.34332	-1.0036	-0.9079	-0.009766	-0.19836	-0.009918	-0.21576	-0.024719	-0.000916	-0.007935
49.687	0.0177	0.15747	0.19226	0.004883	-0.039063	0	-0.12787	-0.005646	0.025177	-0.33295	0.015411	-0.049591	-0.31967	-0.005035	0.024109	-0.028381	0.12848	-0.25192	-0.21957	0.08194	-0.1535	-0.25925	-0.42893	-1.0371	-0.87112	-0.018005	0.06958	-0.005646	-0.33157	-0.057373	-0.000458	-0.010834
49.688	0.024719	0.14465	0.19302	0.009613	0.011597	-0.25787	-0.072327	-0.010376	0.014801	-0.040131	0.007782	0.092621	-0.18234	0.24536	0.040131	-0.10422	0.084534	-0.21408	-0.5275	0.095062	0.30594	0.003052	-0.45334	-0.85495	-0.92133	-0.005493	0.21179	-0.009918	-0.84915	-0.12955	0.000763	-0.005798
49.689	0.027466	0.13672	0.19486	0.006561	0.034485	-0.34027	-0.072784	-0.008087	0.002594	0.14786	-0.014648	0.38284	-0.023041	0.25284	0.067444	0.008087	0.047455	-0.14206	-0.58548	0.13657	0.50812	0.047455	-0.32242	-0.39352	-0.73441	-0.007019	0.36026	-0.005798	-0.8432	-0.12085	0.00061	-0.015564
49.69	0.026855	0.10025	0.19623	0.011139	0.025482	-0.2829	-0.061035	-0.004425	0.001984	0.3772	-0.012665	0.036163	0.052338	0.26977	0.042877	0.096893	0.032043	-0.09079	-0.40894	0.072327	0.4744	0.21332	-0.17059	-0.29251	-0.22278	-0.006104	0.47897	-0.007019	-0.17838	-0.13458	0.012665	-0.014038
49.691	0.020142	0.043182	0.21271	0.002747	0.041656	-0.12634	-0.040894	-0.007629	0.003662	0.43289	-0.009766	0.14816	-0.012207	0.54336	0.007935	0.04776	0.000763	-0.17975	-0.29678	-0.042114	0.24155	0.60333	-0.15274	-0.085907	0.087738	-0.003967	0.094299	-0.006561	1.0855	-0.1648	-0.000763	-0.01358
49.692	0.014801	-0.010071	0.21729	0.010223	0.046692	0.047302	-0.016937	-0.001984	0.002899	0.37705	0.001373	-0.18021	-0.079041	0.90897	-0.019226	-0.011444	-0.032043	-0.30304	-0.12177	-0.065613	0.18234	0.60883	-0.24017	0.042725	0.17502	-0.000763	-0.79681	-0.004578	0.55145	-0.16785	-0.004883	-0.011749
49.693	0.005341	-0.047607	0.2388	-0.002441	0.014954	0.098114	-0.031586	-0.002441	0.005646	-0.12482	-0.002747	-0.062408	-0.10422	0.44281	-0.015564	-0.055389	-0.071869	-0.35187	0.032654	-0.00061	0.14297	0.58777	-0.27298	0.063019	0.087738	-0.003357	-0.55512	-0.000458	0.23148	-0.046387	-0.003967	-0.01358
49.694	0.000305	-0.025024	0.24139	-0.011902	0.007782	0.075073	-0.034027	-0.001068	0.01236	-0.25345	0.00412	-0.2124	0.079041	-0.55191	-0.049744	-0.04364	-0.06073	-0.27756	0.12955	0.030365	0.15656	0.48889	-0.23911	0.13031	-0.078125	-0.011597	0.13611	-0.00946	0.23193	-0.02121	-0.001678	-0.005951
49.695	0.006104	-0.050201	0.24628	0.012054	-0.019226	-0.003052	-0.050354	-0.007782	0.028381	-0.079956	0.002289	-0.14358	0.20615	-0.40955	-0.04425	-0.020294	-0.019684	-0.18585	0.040588	-0.037689	0.25284	0.31799	-0.16144	-0.17197	-0.2446	-0.009766	0.43243	-0.001526	-0.082397	-0.042267	-0.00351	-0.012665
49.696	0.016174	-0.072021	0.25681	-0.003662	-0.008392	-0.037079	-0.071716	-0.006561	0.037537	0.058289	0.003967	-0.17731	0.15518	0.017548	-0.00946	-0.055542	-0.014801	-0.22232	-0.053101	-0.103	0.10147	0.29007	-0.3244	-0.23514	-0.36819	-0.012054	0.31433	0.001831	0.2002	-0.068207	-0.001831	-0.012512
